/* XPM */
static char *a6d2d192503b4e25868d289d68e0ff07gYpUDW4twHKMyBd5[] = {
/* columns rows colors chars-per-pixel */
"118 74 88 1 ",
"  c #000012",
". c #000013",
"X c #000014",
"o c #010014",
"O c #000015",
"+ c #010015",
"@ c #020015",
"# c #000016",
"$ c #010017",
"% c #020016",
"& c #030116",
"* c #030117",
"= c #040217",
"- c #020018",
"; c #030119",
": c #040218",
"> c #050318",
", c #050319",
"< c #04021A",
"1 c #05031B",
"2 c #060419",
"3 c #06041A",
"4 c #07051A",
"5 c #07051B",
"6 c #06041C",
"7 c #07051D",
"8 c #08061B",
"9 c #08061C",
"0 c #09071C",
"q c #09071D",
"w c #08061E",
"e c #09071F",
"r c #0A081D",
"t c #0A081E",
"y c #0B091E",
"u c #0B091F",
"i c #0C0A1F",
"p c #0A0820",
"a c #0B0921",
"s c #0C0A20",
"d c #0D0B20",
"f c #0D0B21",
"g c #0C0A22",
"h c #0D0B23",
"j c #0E0C21",
"k c #0E0C22",
"l c #0F0D22",
"z c #0F0D23",
"x c #0E0C24",
"c c #0F0D25",
"v c #100E24",
"b c #110F24",
"n c #110F25",
"m c #100E26",
"M c #110F27",
"N c #121026",
"B c #131126",
"V c #131127",
"C c #141228",
"Z c #151328",
"A c #151329",
"S c #14122A",
"D c #15132B",
"F c #16142A",
"G c #17152A",
"H c #17152B",
"J c #18162C",
"K c #19172D",
"L c #1A182E",
"P c #1B192E",
"I c #1B192F",
"U c #1C1A30",
"Y c #1D1B31",
"T c #1E1C32",
"R c #1F1D33",
"E c #201E33",
"W c #201E34",
"Q c #211F35",
"! c #222036",
"~ c #232137",
"^ c #242238",
"/ c #252339",
"( c #2A283E",
") c #2C2A40",
"_ c #2E2C44",
"` c #302E44",
"' c #312F45",
"] c #323046",
/* pixels */
"u.9k.%.%33%8%%%3:::::::%:::1:::1gp:%:::::%:::1%:%%3%Y3.k%%%%%%%=8H%%3%N:3%.3>%3..3%%%%.3%%%%.3.%%%3%k%3%%L3.0.3%.%3Nu3",
"9%9s,.3,33.%%83.::::::1p%:::::1::::111::%%:::::p%%%.y%%3:%%%%%%>%u..%3k3.s%3.%%0%%3%>>%3N%%=..b]3.%3u333.u%.%..3%%.3%%",
"%%,3=.s%.3k3%%3%1::1:%1M%::::11::::::::%%%3%%%:u%.%%%%%.%%%%::>>%%=%.3,=3L3%.u6H%%=>%%>%k.>%0..3%3yk..3u3%u%%3.N3%%>=3",
"%%%%%%u.%%s3u3%%::16:::p1:::16:1666:%%%%%3uu::%:33%3%3%3:%%,>%:>3933%%%%.u%.3%%%%%%3%%6:%uN3%3>.k333%=u%3.0%.=.k.%>>.%",
"%%%%%k3%3.3%33%%::61::::6%:::1:6%%3u6:%%.%333,=%uu.%%%%Z%%%3:%%%38%u8%330=.=3%3%%%%=%=k9%>%.%3333%vu%.u8%%,%.,33>9g3::",
"%.%%%N%3i%3%%..u:31::::%:%:::1%p%%%%%:%:%3%%,%,%33.%%%.N%%%%:%%%%3%88%6%3%.k..%%%3.%.%u>3%%88k%.k%3%u3u.:3%%,3v9%%%.::",
"%%..>3%3H3%.3v%%%:%%%%=3%%k%%,.33=%..%%:>3%%%%,%%%%3=%%3%%%%%%.%3%%>>%%%.%3L3u3.>i%%%.>..%k3.%>u33u>3%3%%3%.%3u%>%3%p6",
":3%.3.3%u%:%>N=33%%3%%%u%6H%.3%%%%%%3%%%%3%,,,y83.%=.=u.%%%:%%%%3.6%>i%6%>%,%%u3%k.%3%3%3%k33.3N%=%:>333333%3%%%%%9%3%",
"33=%%%%%%%%%%%=%.uu~9,.=%%3%%%H%%%%%88,.%~%%=8.,3%.%%u.%%%.8%.3%%%%>>:%3.03.%3%%%.%%%3,=%,%%%.%>%.u3.%%=%k.3%%%%%6u3%%",
">%9%.3.%%%%%%%%%uu=3%.3>%%33%%N.%33=%%%%.3%.=Z.8.3.3%H%3%=u%kuHu%3>3u6:>yNu.%%.,%3=%,.s%uu3%:>%30%kp%3===3,.3%3.663%%%",
"%%k3%3.3%33%%=3=3u>.%33.%%3338Lu%>=%.=88==382jy=9k%u3L8>%..%u%..%%%3u9>:kNu%%>,k%.8.3uC3%%%%=%.%=%33%>%.....>k%%p1::%:",
"==i3%3.=%383>=333Nu>%pu3%%%3%=i%>...=888=%3>o 2.9u3%%u%.8.3=Y%9393=%3>::33%%33uvu.k..3%.%%%%3>=8%%:%%3=%3u%u%N.31:::>:",
">u>3>%>%:3>>%%%%.u...%%%8>%>%33.>>=.====u.Z=28.r3%3.%%%3.3.=%k.%%%%%3uuN93%%3%%:.%,u.33s3=%%%%8v%3%.%==%%%u.%3.3:%::1:",
">p%33%u%:>6%%%%%%%%%u%%%3=%33u33>00>.=>8==8.r2..%3,3.3%H3:3.%%..kki33%.%u3,=33=%3LuL3.%%.%%%%.%u3u%.%%%..=33.%%u::::::",
">u%363p::>>:%>=%3%%%..%3>>%3.>.%.808==8y=i.>i=b.%3=3.,.u%.%3.%%3%%%%333u,,33%3uu.u.uu%.%%>338%%33N633%3%uHuN%3.3:1::%:",
"%%>::>::%:%%%>>%.3>I33.%%>3u3u3k>>%.==>==.==.2y833s%8=%%%=H%3%3.39,.,3%%%,u3.%33=.%.C~%3u3%.%.%u%u%.%%%%.3%36.3=111:::",
":>up8%%3g%.%33===.8=.%k.%%3>%u%3>%33g>8k833u%%%3u.,%.>%=%>3>:.3%:%%=>%3c.3%%3%%%.u%.=>%%3%%..3%%%3%%pv1:6:6:_:6:p:::::",
".%>39333>3ukk3%%%%%3=>H33.%=%%.0uu%%%3>8.%%3u333u%3,9u%%%>.:.:%%>>%3>%%%u83%3933%3.%3.%3..33%..%:3%%%3::%9::g:%61:::::",
"u3:%>ui9>3==9>%3=%3..3%%%.3%=3%..3=N3k%.i3%%..%3u3%%38%3%>%>k%%%%%=33>%%=%%33%%.%3%%=%3%3...%333%%%u%%%:%8%.%%%%::::::",
"u3%.>93%=3%%9%.3uJ%3%%3.3.3%uu3.3%%u.3ug.%%33%:%%33%%%%i>%:%H%%%%%33>6>:%.uk3.%3.u3.%33%.kHi%%.%%%9N3%%%%3,.%:3.:11:%:",
">%>gvu>%uk3%6%%i%3%..3.3L%.%k=%ku%%u%%%=83%%%3NL.33u%..3%%%=33.i%=3%%%%%9:3u%%3k3,.3,.%%..%..%%=3%%u.%%3,,.u.k%%1pp1:1",
"3>9cNp>>8u3%%.3H=N.=3%u3H%.%8%%3L%%.u%3=..==%.%u3%%3%%>.u%>%Nk%...%%%%%%>%.%%%3%%%.3%,9%3%33..k(3%.,.%%3,%%,.3%%:1p:::",
">:::>%%%..%33%=u3,>.%...=>=%.3%%3%33H8%.333333kC3%%u%.0..3/ik%%38%.%=%%:%%%3u3%..3,%:ub%3..33%.3%=.3%3%3,.,.,8=%::1:%:",
":>>>393>N3..%%%%%%%%3.8%.%%3.33N%%%.8%%3%%%>%%%%%.uN3%k%0%i.%%>%Hu%%>:%%.33.%%.38%%u3=9%.%3..3%%.3..%3.%%3.u%L%=::::::",
":kH:3.33%3.3%u%%%.3%.3.%.3.%=.%%%%:33>:%%3.33%3%%%%%>=%%3>%%%%>3%,.%3H%33..3%%u.,%.%%%%%%%>%%%%=,%%3yu=%,9u9====1:%:1:",
"%3%:%u%.3u%%.>%=3u.%=%k%%=%%6%3=3=%%%%%%%3%..=k9%.%%:=3%%%3%3=:>,3%.%s%.N3%=%%k3%%u,u%3%%%3>%>%333%%=%.3=%%%==%.:1:%%:",
"%3.3.k:33uu3>>%>%u.%3%H%%3.%93%%u3>>:%%%%uu=%%3.3.%3%%%%.%333::%3%3.%,%%i3%>%>u%%%N3H%u%939%%3%%yy93==8b08%%o==o%u3%%>",
"%..%3.%%%3u33=%>%33%%=8%.3%%3=3%33333%%:%%%uu.%33.%>.%3.%%%3:%:%u=93%%u,%.%=%%,.,%v,k%u=p>>%39%%3=..8===.0NZj>..%63%>3",
"3%3uHu33%%%.=%%333>3.=%%.>.%==33%%%=%%%%3.%3=%%u3.%3%3ku%%::%:%:3=3u%3u3%%3%.%%3%%3%3%3%3%>%%uuuu8==yy=.>0y2..8b%%%%33",
"...=8%%u%%%%u3==%%.%%%9.%3%.%%33%%%%%.%>3%>%%3%%3%%%%%u3%%:%:%:>%%%u3%%3%3gu33%:%:%>.%%=%%u>%33N.=.===.=.%>2=o==:%%>33",
">3%3.%%H%%=3k3%%%%k.%%i%3u3%:%%.=%%>%%%33.%%3u333%.%%.%.%%%:%::>.%%>u%%%.>u338.%%%%3:3%3=3u3.%%u=3888=8y>=...ooo>33=33",
"%%%%3..3%%%.u%%%33`%3%%=%u%%333%%=383%%=L3.%3=.8%%%%,%%%%%%::%::.%%%N.3:%%=.%8%3%:%%%>%>%%%%%3%%.===8=.=>>=====o%93%%%",
"u.%3..3.%:%:%>%:k%%%%>%%,%%3%L333.=%3.%,%>%=g>%%.=.%u=.=.3%u3Hk%%%3u>.%33,.%..3%%%%:333%3y%.%%%.98b3%%k3%%%%3>.%u.%..%",
"%8%%%>33:>:>%>::N%%%%>%%333,%C,,83>%.33.>>=3gu33C%%3/k3%%%%k.3..333i6:33~Z3%%%3%%33%%3%%3.u%u=L%%%33063.%>::33%=8%3>>3",
"3Nu.3%%=36>>%3::Z3=>>9>:%%3%%k3,>=.3%s3.%==%39==3%.%3..3=>3N33.3%%3uu33u,%..3uNu%333%%%%%%..3,3%%=u=..99>3>:33%%8.::uC",
"=u%%3%.833%%%>::g%%%:3:%.%9.,63%%%.3%3%,%8%%%%>.%3.3=3.3%..u%%%%%.%%%%3%%333%%=.%33%%%%%.u.%,%.%>%33uu8>33%%>%%%=.>%%3",
"%..%%.>%>::%=>>:=.%3>%>:%%u%3.%.3%u33.%%%k%3=.k%%.%.3%3%3%:3%:%.3,%%..%..%%%..3,%33%.%%%%.%%>%u%...%%%%%3u3%>6>>:%:::6",
"3%33.3k.%>3%=%>>%%>ku393%3u33.=%.3k%%.3%.u.3=%N33>33..3H%3uu%%3>u3,%%39=:%..%=9%339=%%=%.u%%=>=%9gu3%%uL%63%>3331:::6D",
"..%3.uJ9%:9:3%3%.%%uu%3%.%%%3%33.3u3.3u>%%%=%%u%.%.N%8.u%%=%%%3%3%%%%ui3%%%uuyv9=>=%%%>%3Y393k.3.%.%33%u.3%.=3=%::11:6",
"=%%3%%g3%:u%=.%%>=%gi=3.%%%%%.%3,%%3%33%8.k8.3%%%%%%.%3>u%%%3u3.,%%..38%.363..3%%%%%%:>:%g8%>63.%3%>.%=L%3=%%=%%::1:%>",
"u>%%%33u%%%3%3>%%N~3%>%%%%3%3.=%%.3%3.%3L=%3%%=%%%ku%.9%%%%%=>>>%=3%3%3%%3%%3%.:%%%u=>.%%9u>%33%3%%3=]%:%%%..3=%:::::%",
"%>3%%..%%ukk>%383.33.%%L%3%.p3%.:%3.%%..u.%:.%3.33u%.%u..3gu>%>9N38%=.%>3%L.8%%%=%%>%%%3%==%%uu3%8.=.k%%%3Nu=%%9c1:::1",
"%%%%%%%%.%=3%%>%3.%3.3.u.3>.b3%u%%%%%u%%.%%%.%k%%.3%,bLk3%%%:>%%8.%%%.3..uu>.3>%%.%%>%%%%3%%%u6>%9%%%.%3,%3%%%%3:1:1:%",
"==%.%99=%..%%=>%.33%%k%.>%%=u.%H==%=>N3>%u%3%%N33%%.%3s=u893>>3u%%8%%3k.u..>%]=%%.%%9%=%333..%%.%.%%u3%3u%%%%=%36ggg1:",
"u33%%333%%3>.%%%%%u%3>33k%%%%.033%%=%u%%%3.%=%u%ku3u33333,%%%%%%333.%3k=.%%=.%u=3%33g3u%%33%%%%%%%.%3u333=uu8,.>=3%.%:",
".3u3%%=u%..%%33%3%9%3.%%9=i=.3k.%%%>%=%:%%.3u=3%%..3=%%uk9%3pk3.3%%%u%%3H.y.3u3%%%%>3333%333%%=3%N.3%%u%%.,338%%,33%%6",
"..33=.%93..%3ku%.%3%=>3%.=b3%=k%%%u%%%>>3>%3u3=333=u33%u%3u3%..%>%>uC8%3==%0%.u%%%%%.%%=%33>%%%=>k%3%.3%9%%.3ku3%0u=..",
"3%.%3%%>.%>=%%%%33.3%%%3=%%%3%%%=uC=%%>>%%%.%3%%.3%3%6%3u33%%:33:9%.k3.%%%%k3=i%.=%8%3%%%%%%.%%%3%3.%3.%%%9,%3%%%%..8H",
"%.3.y8y%%%.3%3%%::::::%%:%3383..%=%%k%33u:=...3.kuu%=3H9%3u%=k33%%%6%3=.u=3%%9>%%%%.%%.3uu%.%,3.%==%%%=:%%.8>.uu%>3.3%",
".%>>3==%%%...%%>:::111%%%%:>.3%3.33.3%3.,%33>.>33%..%.9.33%%%%=k%.%3%%%%N3%.iNu%%3Nk=333,%33%..%.%%.%>=%3%%%%%%%9=%%%%",
"=>=i=3%8%%38p::::1ppgg1:.%u>>>.%H%%.=%%33...3.3N9%.=3.3%3u3%%%>:3%33>..3%%>.%=%%%.33.3k.,.%3...N=3333993N%3..u33%=3H%=",
"=3.b,8=s%%ukC6:%:::::::633c%3=09~%%=83%33%%uH8%%%%,,%.33%k333%3.,.33k%8k%.3%%%%%8%%%%uN3k=ku%3u~%%%%%33>8%39uk8%%=iL33",
"8==8==,s3.%%6%::%3vSC9=%%%938u93u.33uN3%u,..3%>3%=3%%3%333.,3.%30=33k=%8%%3%=3,3.3%63.%%%.s,.%.u33339gck%%.3%3u%k>>3%3",
"y>>.=.,83%%%>%:::%1:%%%3%%%u%k%>..=0%3%3.%3%3%=%%3%%3k=3%=.:3..%3u3.8=%..%3%%3%=>i3kk%%=%,s3>6%%33%%%36>3u%3%.u3k39%%%",
"8>0=>.==%=%:661:%%%=%%38Hk=3%u9N33%3%.%3Hvb%%.33%%.%%k%k%33%%%%%.0%.%u=3u..%uN3.%3.%3%u%%%%%.%%%ku3>=3>:%%uNu33%3>g39.",
".=8>==,=%3%:%p1:>%%%%%%%=.8=k>%:%v%=%uu%3%3:>%3.33%,%33L3.3%%%3U3Hu.%9%%..=%%3%3%u3u..b%%3%%%%3%33%%=>>%u.33%%,v3%=3b3",
">>.3>N338i3.%%%>L3%%%%u%%%:%:6%%u3%3%3%=%%3]%3%b3.%,%uu%%=%3.3%%8.33.%3%3.%3%u%L3>%%3333Ck3=b>.,3.3Li=.%%33%.%3%3=%9%%",
".i80..>%%>%%%%::.%333.%%%:6::u31%%3>%%%.%%%u3=%%>3%%u%.3%3>u33%%%3HH8=uu3%%..u%u33>33%%3%%.%33.%.83..3%%%%3%%33:993>%3",
">y.>0>N>%::>:31%=3..3%%%%>p1:61p%%u3u%3%.3%.%%%..%%%%%=,%%%i3%.3..33.%%.%>>%.33.3%33333%3u33.>%33.33u%3%.%%%333%333%%>",
".0>>..3=9>36:66%.=u3,..3%>6:%:::339%%.%%33.%3%.3.,,%..3..%38=.%%u%.%%38%.%.u%%%.%%%%3%3:.%8u%%:3%3..3%3%%%%%33%%=%8.3%",
".==>.i.%3%%3:36:%.Nk.3%%:31::::169>>.3%%k.%%k.3%yC3%u..3>uu=%%==..%3%%%%k..3=.%%33:%%%%.g==%=%%3N.3u.=L%>:%>33%%=%33u%",
"8..=>!0%3:%%%%1%8.00.k3%::::1:1139>8%u333.%%%.>%,3...%u%=3u%.%u3%>33==%%J33.3%3=93::%%%%Yu%.9%=%%..33%u%6>:>%%%%3%%3u3",
"=>8=.i%%33:%%%:%.3iN=,%%%:%:::::%==%%%%..>%3%%.=,:3u.k/3%%>.%%83%=.%=%%%3,%.%3%%>::%%3338>%=ku..>33.%9L%>:%>%%%%%%.%>3",
".=..3kg%%3%%:::6NL%u%%3%%::1:%1:%3u%%%3%%%3.Y3%%%%.=..k.>%>%>%%%%=%%>=%,.8.33)9::%%>=3%%uN3%%%.u%%%>~>6%%%%==%%=%3%%%k",
"%=:%%:1:6gp1111:1p11%1C3.33>%%3%%=%%%%%3:u9>8=%=%.%%%%==%63%%%%%.k.uN.%3>=%.%3%%%>3%%%%%%%%:ph61u%.3u3%%usu%%%%3%%>.3%",
":%:::11::pp::1:::p:166p%3%%Nu.%%%%=%3%%>3>.%%>%%3%%=%=3%=%3uu=%%3k%uu%.%.%3%%%=%%%3>%%%%33:%6p::3%%%3%%3%93%%3uk=33.>.",
"6:%1p1::%::%:::::1::6:3%%=uu%3C3=.=%k=%%%%63%%%%=%.%%=933%:3%%83%>.%.%%%%.8%%.3%%:>>%%:%33%%::::%.%3%%,u%33%.%>u%9u%3.",
"p,::111:%:%%:1:::p::6%36%..%.%u33%%%b=%:3uNk%%>%u3393uvk3%3%.%k3%.3..3>%u.=.%%k%%:>333,,33:%:::1%%%33=%3.33%%%%:%8u%,%",
"1p1::11:::::1p:::6::1%%p%u%.u8%%%%%%6%%,Nu33%3u%:%>:.%>>3.3k339%k9Y9%.>3g%=%%3k%%%:3633%:61::::1u=%%33%%%=>399:%333.,%",
":11::111::%:pp::%111:%%6%Hu.3ku.%%.%%%.,8=%%%33%%:3933u33.%i3.%%Y33.uku.=%33%33%%%%333%%:11::::1k3..%33.%%>3uu>%u3%.,%",
"::11::11::::11:1:::::::%33.%3..u3u%3.3.%.%3=%%%=:%%>39933%%=%%%%,%3,..>u%3%u%u3%%%>:3%,3:6::1:::u>%%%%%%=>%%3>%:u%%%u%",
":::p1:::::::::::::1:%1:%.33u3%=%3k3u%k.%%u%%==%>b3%%%3u3.kk=3iu.=3.8.3.%=8%33k33%36>..39:::::::1..%%%%%%=>%%%%%3%.%3N,",
":11:11:::::::::::1%1:%%%%%3393,%>:%:%%%:%>%%%%%6%>%%%%3%9%3%3=%=%%%%%%%%s3%.%33%3ck3%%:1::::::::%,..%%.3%%%%=33u%%%3%%",
"::1:1::1:::::::::6:cp:,%=%%,,%%,>%:%%::%:==3%33p%%%:%%3%v%=%u3%%%%%%%%%%3:%%%%%%%33%.%%::%::::::%%%%33uN%%%%%%33%>%%3%"
};
