/* XPM */
static char *result[] = {
/* columns rows colors chars-per-pixel */
"14 15 2 1 ",
"  c yellow",
". c None",
/* pixels */
"..............",
"....     .....",
"..         ...",
".           ..",
".           ..",
"...          .",
"......       .",
".........    .",
"......       .",
"...          .",
".           ..",
".           ..",
"..         ...",
"....     .....",
".............."
};
