/* XPM */
static char * wall_xpm[] = {
"32 32 266 2",
"  	c	None",
". 	c #F66AAE",
"+ 	c #F35BBA",
"@ 	c #F5C5DD",
"# 	c #F6C661",
"$ 	c #F8C665",
"% 	c #F9C768",
"& 	c #FA6FCA",
"* 	c #FCC678",
"= 	c #FDC580",
"- 	c #FDC680",
"; 	c #FCC678",
"> 	c #FA6FFB",
", 	c #F968C7",
"' 	c #F765C5",
") 	c #F660C4",
"! 	c #F5C45C",
"~ 	c #F3C458",
"{ 	c #F1C455",
"] 	c #F1C552",
"^ 	c #F0C650",
"/ 	c #F1C551",
"( 	c #F1C450",
"_ 	c #F1C34F",
": 	c #F4D567",
"< 	c #F5D568",
"[ 	c #C76814",
"} 	c #A23B07",
"| 	c #A73A0C",
"1 	c #B13A13",
"2 	c #BE3A1A",
"3 	c #CA3A23",
"4 	c #D43A2A",
"5 	c #DD3932",
"6 	c #E13A35",
"7 	c #E13A36",
"8 	c #DD3932",
"9 	c #D43A2B",
"0 	c #BE3A1C",
"a 	c #B33A14",
"b 	c #A83B0C",
"c 	c #9F3A07",
"d 	c #993904",
"e 	c #933804",
"f 	c #8F3904",
"g 	c #8E3904",
"h 	c #8D3804",
"i 	c #913A05",
"j 	c #C66814",
"k 	c #F6D76B",
"l 	c #F1C5B5",
"m 	c #97033B",
"n 	c #52021B",
"o 	c #5D1805",
"p 	c #6A1D09",
"q 	c #09185D",
"r 	c #0D186A",
"s 	c #101875",
"t 	c #14187F",
"u 	c #171887",
"v 	c #17188C",
"w 	c #18188C",
"x 	c #171888",
"y 	c #151880",
"z 	c #101876",
"A 	c #0C186A",
"B 	c #09185E",
"C 	c #051753",
"D 	c #03184A",
"E 	c #011844",
"F 	c #011841",
"G 	c #011840",
"H 	c #001840",
"I 	c #001841",
"J 	c #011B51",
"K 	c #053B9E",
"L 	c #58C5F2",
"M 	c #55C9F2",
"N 	c #023A91",
"O 	c #01142E",
"P 	c #01142F",
"Q 	c #031433",
"R 	c #041438",
"S 	c #05143C",
"T 	c #061441",
"U 	c #051442",
"V 	c #061443",
"W 	c #061440",
"X 	c #05143D",
"Y 	c #021430",
"Z 	c #00142B",
"` 	c #00142A",
" .	c #00142D",
"..	c #04184D",
"+.	c #0A39A3",
"@.	c #59C4F2",
"#.	c #55C9F0",
"$.	c #00183F",
"%.	c #001429",
"&.	c #01142D",
"*.	c #061857",
"=.	c #103AAD",
"-.	c #5CC4F4",
";.	c #023A90",
">.	c #0A1863",
",.	c #1639B8",
"'.	c #61C4F6",
").	c #54C8F2",
"!.	c #023B90",
"~.	c #031435",
"{.	c #0E186F",
"].	c #1E39C4",
"^.	c #66C5F8",
"/.	c #53C8F2",
"(.	c #041439",
"_.	c #13187B",
":.	c #253BCF",
"<.	c #6AC5FA",
"[.	c #05153E",
"}.	c #151884",
"|.	c #2E3AD8",
"1.	c #73C5FC",
"2.	c #53C8F1",
"3.	c #033A92",
"4.	c #011429",
"5.	c #051440",
"6.	c #18188A",
"7.	c #333ADF",
"8.	c #7CC5FD",
"9.	c #061442",
"0.	c #82C5FE",
"a.	c #54C8F1",
"b.	c #023A93",
"c.	c #00142C",
"d.	c #051441",
"e.	c #171889",
"f.	c #343ADF",
"g.	c #7DC6FD",
"h.	c #57C7F2",
"i.	c #033A95",
"j.	c #011842",
"k.	c #05143E",
"l.	c #161984",
"m.	c #2E3AD9",
"n.	c #74C6FB",
"o.	c #5BC7F3",
"p.	c #FF80E1",
"q.	c #FFB7D1",
"r.	c #FF94C8",
"s.	c #CF9DFE",
"t.	c #FFD1FA",
"u.	c #FFCCF8",
"v.	c #FF87E3",
"w.	c #FF6CD8",
"x.	c #FF92CC",
"y.	c #FF8AD6",
"z.	c #C99EFE",
"A.	c #FFD0F9",
"B.	c #FFCEF8",
"C.	c #C89EFE",
"D.	c #FF87E1",
"E.	c #FF6CD6",
"F.	c #FFCFFA",
"G.	c #C69FFE",
"H.	c #FF92CE",
"I.	c #FF8AD4",
"J.	c #FF6CD7",
"K.	c #FFD1FB",
"L.	c #C89DFE",
"M.	c #FF92CA",
"N.	c #FFD8FB",
"O.	c #C99EFD",
"P.	c #FF6CD5",
"Q.	c #FFCFF9",
"R.	c #FF90D0",
"S.	c #C59DFE",
"T.	c #FFD5FB",
"U.	c #C99DFE",
"V.	c #FFCCF7",
"W.	c #FFD2FA",
"X.	c #C79EFE",
"Y.	c #FFB6D1",
"Z.	c #FFA7DE",
"`.	c #C59EFE",
" +	c #FF9FD9",
".+	c #FF8AD3",
"++	c #C69EFE",
"@+	c #FFB3D0",
"$+	c #FFA5DC",
"%+	c #C89EFD",
"&+	c #FF9FD7",
"*+	c #FF8AD1",
"=+	c #FFB0CF",
"-+	c #C79EFD",
";+	c #FF6BD4",
">+	c #FFD0F8",
",+	c #C49DFE",
"'+	c #FF8CCD",
")+	c #FFCFFB",
"!+	c #C69EFD",
"~+	c #FF6BD3",
"{+	c #FF8ECE",
"]+	c #C49EFE",
"^+	c #FFCFFA",
"/+	c #FF6AD4",
"(+	c #FFB6D9",
"_+	c #1739B7",
":+	c #023B91",
"<+	c #FFB9D6",
"[+	c #FFB8D8",
"}+	c #113AAC",
"|+	c #FFB9D5",
"1+	c #FFB7D7",
"2+	c #053B9D",
"3+	c #011843",
"4+	c #021849",
"5+	c #061854",
"6+	c #FFB1DE",
"7+	c #FFAEDE",
"8+	c #FFA8E4",
"9+	c #FF9EE9",
"0+	c #FF8DF2",
"a+	c #FF81F7",
"b+	c #FF7CF9",
"c+	c #FF6EFB",
"d+	c #FF6CFB",
"e+	c #FF7AF8",
"f+	c #FF8BF0",
"g+	c #FFA3E6",
"h+	c #70DCF5",
"i+	c #FFB2D9",
"j+	c #FFB3D7",
"k+	c #FFB2D8",
"l+	c #FFB3D9",
"m+	c #FFB4D7",
"n+	c #FFB4D8",
"o+	c #FFB5D9",
"p+	c #FFB6D7",
"q+	c #FFB6D8",
"r+	c #FFB7D9",
"s+	c #FFB8D7",
"t+	c #FFB8D8",
"u+	c #FFB9D9",
"u+	c #313ADC",
"v+	c #2A3AD5",
"w+	c #223AC9",
"x+	c #1A39BD",
"y+	c #0D3AA7",
"z+	c #1568C7",
"A+	c #70DCF5",
"B+	c #4FC5F1",
"C+	c #50C5F0",
"D+	c #4FC5F0",
"E+	c #50C6F1",
"F+	c #51C5F2",
"G+	c #5CC5F5",
"H+	c #5EC5F6",
"I+	c #64C5F8",
"J+	c #66C6FA",
"K+	c #FFC0CB",
"L+	c #77C6FB",
"M+	c #6EC6FB",
"N+	c #5FC6F6",
"O+	c #5CC6F5",
"P+	c #59C7F4",
"Q+	c #6DD7F6",
/* pixels */
"  . + @ # $ % & * = - ; > , ' ) ! ~ { ] ^ / / ( _ : : : : : <   ",
"[ } | 1 2 3 4 5 6 7 8 9 0 4 a b c d e f g h h h h i h h i j k l ",
"m n o p q r s t u v w x y z A B C D E F F G H H G H H H I J K L ",
"M N F O P Q R S T U V W X R Q Y Z ` ` ` ` ` ` ` ` ` ` `  ...+.@.",
"#.N $.Z %.%.%.%.` ` ` ` %.%.%.%.%.%.%.%.%.%.%.%.%.%.%.%.&.*.=.-.",
"m ;.H Z %.%.%.%.%.%.%.%.%.%.%.%.%.%.%.%.%.%.%.%.%.%.%.%.Y >.,.'.",
").!.I ` %.%.%.%.%.%.%.%.%.%.%.%.%.%.%.%.%.%.%.%.%.%.%.%.~.{.].^.",
"/.!.I Z %.%.%.%.%.%.%.%.%.%.%.%.%.%.%.%.%.%.%.%.%.%.%.` (._.:.<.",
"/.!.I Z %.%.%.%.%.%.%.%.%.%.%.%.%.%.%.%.%.%.%.%.%.%.%.` [.}.|.1.",
"2.3.$.Z %.%.%.%.%.%.%.%.%.%.%.%.%.%.%.%.%.%.%.%.%.%.%.4.5.6.7.8.",
"2.3.$.Z %.%.%.%.%.%.%.%.%.%.%.%.%.%.%.%.%.%.%.%.%.%.%.4.9.w 8 0.",
"a.b.H c.%.%.%.%.%.%.%.%.%.%.%.%.%.%.%.%.%.%.%.%.%.%.%.` d.e.f.g.",
"h.i.j.Z %.%.%.%.%.%.%.%.%.%.%.%.%.%.%.%.%.%.%.%.%.%.%.` k.l.m.n.",
"o.p.q.Z %.%.%.%.%.%.%.%.%.%.%.%.%.%.%.%.%.%.%.%.%.%.%.Z r._.s.t.",
"u.v.w.c.%.%.%.%.%.%.%.%.%.%.%.%.%.%.%.%.%.%.%.%.%.%.%.` x.y.z.A.",
"B.C.D.O %.%.%.%.%.%.%.%.%.%.%.%.%.%.%.%.%.%.%.%.%.%.%.%.E.F.G.H.",
"I.J.>.K.%.%.%.%.%.%.%.%.%.%.%.%.%.%.%.%.%.%.%.%.%.%.%.%.O L.=.M.",
"N.O.P.x.%.%.%.%.%.%.%.%.%.%.%.%.%.%.%.%.%.%.%.%.%.%.%.%.Z ..+.Q.",
"R.s.S.r.%.%.%.%.%.%.%.%.%.%.%.%.%.%.%.%.%.%.%.%.%.%.%.%.` T.U.V.",
"W.X.Y.Z.%.%.%.%.%.%.%.%.%.%.%.%.%.%.%.%.%.%.%.%.%.%.%.%.` j.`. +",
".+++@+9.` %.%.%.%.%.%.%.%.%.%.%.%.%.%.%.%.%.%.%.%.%.%.%.` #+$+%+",
"&+*+w V %.%.%.%.%.%.%.%.%.%.%.%.%.%.%.%.%.%.%.%.%.%.%.%.` =+-+;+",
".+>+@+9.%.%.%.%.%.%.%.%.%.%.%.%.%.%.%.%.%.%.%.%.%.%.%.%.` ,+-+;+",
"W.m.}.'+` %.%.%.%.%.%.%.%.%.%.%.%.%.%.%.%.%.%.%.%.%.%.%.` F h 2.",
")+s.!+~+%.%.%.%.%.%.%.%.%.%.%.%.%.%.%.%.%.%.%.%.%.%.%.%.` F -+2.",
"{+]+{.^+%.%.%.%.%.%.%.%.%.%.%.%.%.%.%.%.%.%.%.%.%.%.%.%.` I /+/.",
"(+_+>.E.%.%.%.%.%.%.%.%.%.%.%.%.%.%.%.%.%.%.%.%.%.%.%.%.` I :+<+",
"[+}+L.O %.%.%.%.%.%.%.%.%.%.%.%.%.%.%.%.` ` ` ` %.%.%.%.` H N |+",
"1+2+3+ .` ` ` ` ` ` ` ` ` ` ` &.P Q 4+S W 9.9.5.S 5+Q P c.F h 6+",
"7+8+J F G G G G H H H H H 9+0+a+B b+z c+x d+e+u t f+g+q h+i+j+m ",
"k+l+m+h n+n+n+n+n+i i i g o+p+c q+r+s+t+9 7 7 u+v+w+x+q+y+| z+A+",
"  . B+B+C+D+D+D+D+( ( ( E+F+~ G+H+I+J+> K+- = L+M+, (+N+O+P+Q+  "};
